<svg xmlns="http://www.w3.org/2000/svg" viewBox="0 0 420 265" width="420" height="265"><ellipse cx="210" cy="252" rx="195" ry="9" fill="#C5D6E8" opacity="0.65"/><rect x="176" y="34" width="228" height="170" rx="8" fill="#FFFFFF" stroke="#BAC4CE" stroke-width="2"/><path d="M196,186 C230,120 300,180 372,70" stroke="#BAC4CE" stroke-width="5" fill="none" stroke-dasharray="3 9" stroke-linecap="round"/><path d="M196,186 C210,60 320,60 372,70" stroke="#BAC4CE" stroke-width="5" fill="none" stroke-dasharray="3 9" stroke-linecap="round"/><path d="M196,186 C280,196 380,170 372,70" stroke="#BAC4CE" stroke-width="5" fill="none" stroke-dasharray="3 9" stroke-linecap="round"/><path d="M196,186 C250,150 250,96 300,104 S350,96 372,70" stroke="#E0701A" stroke-width="7" fill="none" stroke-linecap="round"/><circle cx="236" cy="154" r="6" fill="#FFFFFF" stroke="#1B3A6B" stroke-width="3"/><circle cx="270" cy="108" r="6" fill="#FFFFFF" stroke="#1B3A6B" stroke-width="3"/><circle cx="330" cy="100" r="6" fill="#FFFFFF" stroke="#1B3A6B" stroke-width="3"/><circle cx="196" cy="186" r="8" fill="#1B3A6B"/><rect x="369" y="40" width="6" height="30" fill="#1A1A1A"/><path d="M375,40 l34,12 l-34,12 Z" fill="#2E9E5C"/><path d="M81,178 L83,244 L93,244 L95,184 L97,184 L99,244 L109,244 L111,178 Z" fill="#1A1A1A"/><ellipse cx="87" cy="247" rx="9" ry="4" fill="#1A1A1A"/><ellipse cx="105" cy="247" rx="9" ry="4" fill="#1A1A1A"/><path d="M78,140 L73,174" stroke="#3E6FA8" stroke-width="11" stroke-linecap="round"/><path d="M73,174 L76,202" stroke="#3E6FA8" stroke-width="9" stroke-linecap="round"/><path d="M75.25,195 L76,202" stroke="#8D5A3B" stroke-width="7" stroke-linecap="round"/><circle cx="76" cy="202" r="5" fill="#8D5A3B"/><path d="M75,138 Q74,130 84,128 L108,128 Q118,130 117,138 L113,180 L79,180 Z" fill="#3E6FA8"/><path d="M89,128 L96,139 L103,128" fill="#FFFFFF" stroke="#FFFFFF" stroke-width="1"/><rect x="79" y="176" width="34" height="5" fill="#1A1A1A" opacity="0.55"/><path d="M79,110 Q77,90 96,91 Q115,90 113,110 L114,138 Q96,143 78,138 Z" fill="#1E1915"/><rect x="91" y="123" width="10" height="10" rx="3" fill="#8D5A3B"/><ellipse cx="81" cy="114" rx="3" ry="4.5" fill="#8D5A3B"/><ellipse cx="111" cy="114" rx="3" ry="4.5" fill="#8D5A3B"/><ellipse cx="96" cy="112" rx="14" ry="16" fill="#8D5A3B"/><path d="M81,114 Q80,93 96,94 Q112,93 111,114 Q108,104 99,102 Q90,105 81,114 Z" fill="#1E1915"/><path d="M88,108 q3,-2 6,0 M98,108 q3,-2 6,0" stroke="#1E1915" stroke-width="1.4" fill="none" stroke-linecap="round"/><circle cx="91" cy="113" r="1.5" fill="#1A1A1A"/><circle cx="101" cy="113" r="1.5" fill="#1A1A1A"/><path d="M96,114 q-2,4 1,5" stroke="#6e462e" stroke-width="1.2" fill="none" stroke-linecap="round"/><path d="M92,122 q4,3 8,0" stroke="#1A1A1A" stroke-width="1.3" fill="none" stroke-linecap="round"/><path d="M114,140 L140,128" stroke="#3E6FA8" stroke-width="11" stroke-linecap="round"/><path d="M140,128 L174,112" stroke="#3E6FA8" stroke-width="9" stroke-linecap="round"/><path d="M165.5,116 L174,112" stroke="#8D5A3B" stroke-width="7" stroke-linecap="round"/><circle cx="174" cy="112" r="5" fill="#8D5A3B"/></svg>