<svg xmlns="http://www.w3.org/2000/svg" viewBox="0 0 420 265" width="420" height="265"><ellipse cx="210" cy="252" rx="195" ry="9" fill="#C5D6E8" opacity="0.65"/><rect x="150" y="176" width="232" height="10" rx="3" fill="#977F5A"/><rect x="170" y="186" width="8" height="60" fill="#977F5A"/><rect x="354" y="186" width="8" height="60" fill="#977F5A"/><rect x="176" y="66" width="84" height="108" rx="5" fill="#FFFFFF" stroke="#BAC4CE" stroke-width="2"/><rect x="188" y="84" width="60" height="5" rx="2.5" fill="#BAC4CE"/><rect x="188" y="100" width="60" height="5" rx="2.5" fill="#BAC4CE"/><rect x="188" y="132" width="60" height="5" rx="2.5" fill="#BAC4CE"/><rect x="188" y="148" width="60" height="5" rx="2.5" fill="#BAC4CE"/><rect x="188" y="116" width="60" height="5" rx="2.5" fill="#B11E2A"/><circle cx="226" cy="118" r="21" fill="#FFFFFF" fill-opacity="0.35" stroke="#1B3A6B" stroke-width="5"/><path d="M241,133 L258,152" stroke="#1B3A6B" stroke-width="7" stroke-linecap="round"/><rect x="292" y="75" width="78" height="104" rx="5" fill="#1A1A1A" opacity="0.12"/><rect x="288" y="70" width="78" height="104" rx="5" fill="#FFFFFF" stroke="#BAC4CE" stroke-width="1.5"/><rect x="298" y="80" width="42.900000000000006" height="6" rx="3" fill="#2E9E5C"/><rect x="298" y="92" width="10" height="10" rx="2" fill="#EDF1F5" stroke="#BAC4CE"/><path d="M300,97 l3,3 l5,-6" stroke="#2E9E5C" stroke-width="2" fill="none" stroke-linecap="round"/><rect x="314" y="95" width="40" height="4" rx="2" fill="#BAC4CE"/><rect x="298" y="108" width="10" height="10" rx="2" fill="#EDF1F5" stroke="#BAC4CE"/><path d="M300,113 l3,3 l5,-6" stroke="#2E9E5C" stroke-width="2" fill="none" stroke-linecap="round"/><rect x="314" y="111" width="26" height="4" rx="2" fill="#BAC4CE"/><rect x="298" y="124" width="10" height="10" rx="2" fill="#EDF1F5" stroke="#BAC4CE"/><path d="M300,129 l3,3 l5,-6" stroke="#2E9E5C" stroke-width="2" fill="none" stroke-linecap="round"/><rect x="314" y="127" width="40" height="4" rx="2" fill="#BAC4CE"/><rect x="298" y="140" width="10" height="10" rx="2" fill="#EDF1F5" stroke="#BAC4CE"/><path d="M300,145 l3,3 l5,-6" stroke="#2E9E5C" stroke-width="2" fill="none" stroke-linecap="round"/><rect x="314" y="143" width="26" height="4" rx="2" fill="#BAC4CE"/><path d="M85,178 L87,244 L97,244 L99,184 L101,184 L103,244 L113,244 L115,178 Z" fill="#1A1A1A"/><ellipse cx="91" cy="247" rx="9" ry="4" fill="#1A1A1A"/><ellipse cx="109" cy="247" rx="9" ry="4" fill="#1A1A1A"/><path d="M82,140 L77,174" stroke="#1C3678" stroke-width="11" stroke-linecap="round"/><path d="M77,174 L80,202" stroke="#1C3678" stroke-width="9" stroke-linecap="round"/><path d="M79.25,195 L80,202" stroke="#6E4630" stroke-width="7" stroke-linecap="round"/><circle cx="80" cy="202" r="5" fill="#6E4630"/><path d="M79,138 Q78,130 88,128 L112,128 Q122,130 121,138 L117,180 L83,180 Z" fill="#1C3678"/><path d="M93,128 L100,139 L107,128" fill="#FFFFFF" stroke="#FFFFFF" stroke-width="1"/><rect x="83" y="176" width="34" height="5" fill="#1A1A1A" opacity="0.55"/><rect x="95" y="123" width="10" height="10" rx="3" fill="#6E4630"/><ellipse cx="85" cy="114" rx="3" ry="4.5" fill="#6E4630"/><ellipse cx="115" cy="114" rx="3" ry="4.5" fill="#6E4630"/><ellipse cx="100" cy="112" rx="14" ry="16" fill="#6E4630"/><path d="M85,111 Q84,93 100,94 Q115,93 115,110 Q109,102 98,103 Q90,104 85,111 Z" fill="#1E1915"/><path d="M92,108 q3,-2 6,0 M102,108 q3,-2 6,0" stroke="#1E1915" stroke-width="1.4" fill="none" stroke-linecap="round"/><circle cx="95" cy="113" r="1.5" fill="#1A1A1A"/><circle cx="105" cy="113" r="1.5" fill="#1A1A1A"/><path d="M100,114 q-2,4 1,5" stroke="#563725" stroke-width="1.2" fill="none" stroke-linecap="round"/><path d="M96,122 q4,3 8,0" stroke="#1A1A1A" stroke-width="1.3" fill="none" stroke-linecap="round"/><path d="M118,140 L144,128" stroke="#1C3678" stroke-width="11" stroke-linecap="round"/><path d="M144,128 L168,128" stroke="#1C3678" stroke-width="9" stroke-linecap="round"/><path d="M162,128 L168,128" stroke="#6E4630" stroke-width="7" stroke-linecap="round"/><circle cx="168" cy="128" r="5" fill="#6E4630"/></svg>