<svg xmlns="http://www.w3.org/2000/svg" viewBox="0 0 420 265" width="420" height="265"><ellipse cx="210" cy="252" rx="195" ry="10" fill="#C5D6E8" opacity="0.6"/><circle cx="206" cy="52" r="8" fill="#BAC4CE"/><circle cx="232" cy="42" r="8" fill="#E0701A"/><circle cx="258" cy="56" r="8" fill="#3E6FA8"/><circle cx="220" cy="70" r="8" fill="#2E9E5C"/><circle cx="246" cy="74" r="8" fill="#BAC4CE"/><circle cx="272" cy="48" r="8" fill="#1B3A6B"/><path d="M198,74 L302,74 L262.48,131.04 L262.48,166 L237.52,166 L237.52,131.04 Z" fill="#C5D6E8" stroke="#1B3A6B" stroke-width="2.5" stroke-linejoin="round"/><path d="M302,120 L346,120" stroke="#1B3A6B" stroke-width="3" stroke-dasharray="5 4"/><circle cx="372" cy="120" r="26" fill="#FFFFFF" stroke="#1B3A6B" stroke-width="4"/><circle cx="372" cy="120" r="16.12" fill="none" stroke="#E0701A" stroke-width="4"/><circle cx="372" cy="120" r="6.24" fill="#1B3A6B"/><path d="M85,178 L87,244 L97,244 L99,184 L101,184 L103,244 L113,244 L115,178 Z" fill="#1B3A6B"/><ellipse cx="91" cy="247" rx="9" ry="4" fill="#1A1A1A"/><ellipse cx="109" cy="247" rx="9" ry="4" fill="#1A1A1A"/><path d="M82,140 L77,174" stroke="#E0701A" stroke-width="11" stroke-linecap="round"/><path d="M77,174 L80,202" stroke="#6E4630" stroke-width="7.5" stroke-linecap="round"/><circle cx="77" cy="174" r="5.8" fill="#E0701A"/><circle cx="80" cy="202" r="5" fill="#6E4630"/><path d="M79,138 Q78,130 88,128 L112,128 Q122,130 121,138 L117,180 L83,180 Z" fill="#E0701A"/><path d="M93,128 L100,139 L107,128" fill="#FFFFFF" stroke="#FFFFFF" stroke-width="1"/><rect x="83" y="176" width="34" height="5" fill="#1A1A1A" opacity="0.55"/><rect x="95" y="123" width="10" height="10" rx="3" fill="#6E4630"/><ellipse cx="85" cy="114" rx="3" ry="4.5" fill="#6E4630"/><ellipse cx="115" cy="114" rx="3" ry="4.5" fill="#6E4630"/><ellipse cx="100" cy="112" rx="14" ry="16" fill="#6E4630"/><path d="M85,111 Q84,93 100,94 Q115,93 115,110 Q109,102 98,103 Q90,104 85,111 Z" fill="#1E1915"/><path d="M88,116 Q100,134 112,116 Q108,124 100,124 Q92,124 88,116 Z" fill="#1E1915" opacity="0.9"/><path d="M92,108 q3,-2 6,0 M102,108 q3,-2 6,0" stroke="#1E1915" stroke-width="1.4" fill="none" stroke-linecap="round"/><circle cx="95" cy="113" r="1.5" fill="#1A1A1A"/><circle cx="105" cy="113" r="1.5" fill="#1A1A1A"/><path d="M100,114 q-2,4 1,5" stroke="#563725" stroke-width="1.2" fill="none" stroke-linecap="round"/><path d="M96,122 q4,3 8,0" stroke="#1A1A1A" stroke-width="1.3" fill="none" stroke-linecap="round"/><path d="M118,140 L142.7760246545227,125.64212403179067" stroke="#E0701A" stroke-width="11" stroke-linecap="round"/><path d="M142.7760246545227,125.64212403179067 L176.65598561688367,117.75870819924083" stroke="#6E4630" stroke-width="7.5" stroke-linecap="round"/><circle cx="142.7760246545227" cy="125.64212403179067" r="5.8" fill="#E0701A"/><circle cx="176.65598561688367" cy="117.75870819924083" r="5" fill="#6E4630"/></svg>