<svg xmlns="http://www.w3.org/2000/svg" viewBox="0 0 420 265" width="420" height="265"><ellipse cx="210" cy="252" rx="195" ry="10" fill="#C5D6E8" opacity="0.6"/><rect x="184" y="75" width="50" height="74" rx="5" fill="#1A1A1A" opacity="0.12"/><rect x="180" y="70" width="50" height="74" rx="5" fill="#FFFFFF" stroke="#BAC4CE" stroke-width="1.5"/><rect x="190" y="80" width="27.500000000000004" height="6" rx="3" fill="#1B3A6B"/><rect x="190" y="92" width="10" height="10" rx="2" fill="#EDF1F5" stroke="#BAC4CE"/><path d="M192,97 l3,3 l5,-6" stroke="#2E9E5C" stroke-width="2" fill="none" stroke-linecap="round"/><rect x="206" y="95" width="12" height="4" rx="2" fill="#BAC4CE"/><rect x="190" y="108" width="10" height="10" rx="2" fill="#EDF1F5" stroke="#BAC4CE"/><path d="M192,113 l3,3 l5,-6" stroke="#2E9E5C" stroke-width="2" fill="none" stroke-linecap="round"/><rect x="206" y="111" width="-2" height="4" rx="2" fill="#BAC4CE"/><rect x="240" y="51" width="50" height="74" rx="5" fill="#1A1A1A" opacity="0.12"/><rect x="236" y="46" width="50" height="74" rx="5" fill="#FFFFFF" stroke="#BAC4CE" stroke-width="1.5"/><rect x="246" y="56" width="27.500000000000004" height="6" rx="3" fill="#2E9E5C"/><rect x="246" y="68" width="10" height="10" rx="2" fill="#EDF1F5" stroke="#BAC4CE"/><path d="M248,73 l3,3 l5,-6" stroke="#2E9E5C" stroke-width="2" fill="none" stroke-linecap="round"/><rect x="262" y="71" width="12" height="4" rx="2" fill="#BAC4CE"/><rect x="246" y="84" width="10" height="10" rx="2" fill="#EDF1F5" stroke="#BAC4CE"/><path d="M248,89 l3,3 l5,-6" stroke="#2E9E5C" stroke-width="2" fill="none" stroke-linecap="round"/><rect x="262" y="87" width="-2" height="4" rx="2" fill="#BAC4CE"/><rect x="231" y="41" width="60" height="84" rx="7" fill="none" stroke="#E0701A" stroke-width="3"/><rect x="296" y="75" width="50" height="74" rx="5" fill="#1A1A1A" opacity="0.12"/><rect x="292" y="70" width="50" height="74" rx="5" fill="#FFFFFF" stroke="#BAC4CE" stroke-width="1.5"/><rect x="302" y="80" width="27.500000000000004" height="6" rx="3" fill="#E0701A"/><rect x="302" y="92" width="10" height="10" rx="2" fill="#EDF1F5" stroke="#BAC4CE"/><path d="M304,97 l3,3 l5,-6" stroke="#2E9E5C" stroke-width="2" fill="none" stroke-linecap="round"/><rect x="318" y="95" width="12" height="4" rx="2" fill="#BAC4CE"/><rect x="302" y="108" width="10" height="10" rx="2" fill="#EDF1F5" stroke="#BAC4CE"/><path d="M304,113 l3,3 l5,-6" stroke="#2E9E5C" stroke-width="2" fill="none" stroke-linecap="round"/><rect x="318" y="111" width="-2" height="4" rx="2" fill="#BAC4CE"/><rect x="352" y="75" width="50" height="74" rx="5" fill="#1A1A1A" opacity="0.12"/><rect x="348" y="70" width="50" height="74" rx="5" fill="#FFFFFF" stroke="#BAC4CE" stroke-width="1.5"/><rect x="358" y="80" width="27.500000000000004" height="6" rx="3" fill="#3E6FA8"/><rect x="358" y="92" width="10" height="10" rx="2" fill="#EDF1F5" stroke="#BAC4CE"/><path d="M360,97 l3,3 l5,-6" stroke="#2E9E5C" stroke-width="2" fill="none" stroke-linecap="round"/><rect x="374" y="95" width="12" height="4" rx="2" fill="#BAC4CE"/><rect x="358" y="108" width="10" height="10" rx="2" fill="#EDF1F5" stroke="#BAC4CE"/><path d="M360,113 l3,3 l5,-6" stroke="#2E9E5C" stroke-width="2" fill="none" stroke-linecap="round"/><rect x="374" y="111" width="-2" height="4" rx="2" fill="#BAC4CE"/><path d="M246,154 l10,10 l18,-22" stroke="#2E9E5C" stroke-width="5" fill="none" stroke-linecap="round" stroke-linejoin="round"/><path d="M85,178 L87,244 L97,244 L99,184 L101,184 L103,244 L113,244 L115,178 Z" fill="#1A1A1A"/><ellipse cx="91" cy="247" rx="9" ry="4" fill="#1A1A1A"/><ellipse cx="109" cy="247" rx="9" ry="4" fill="#1A1A1A"/><path d="M82,140 L77,174" stroke="#C5D6E8" stroke-width="11" stroke-linecap="round"/><path d="M77,174 L80,202" stroke="#C5D6E8" stroke-width="9" stroke-linecap="round"/><path d="M79.25,195 L80,202" stroke="#A86B45" stroke-width="7" stroke-linecap="round"/><circle cx="80" cy="202" r="5" fill="#A86B45"/><path d="M79,138 Q78,130 88,128 L112,128 Q122,130 121,138 L117,180 L83,180 Z" fill="#C5D6E8"/><path d="M93,128 L100,139 L107,128" fill="#FFFFFF" stroke="#FFFFFF" stroke-width="1"/><path d="M97,130 L103,130 L102,136 L104,164 L100,170 L96,164 L98,136 Z" fill="#1C3678"/><rect x="83" y="176" width="34" height="5" fill="#1A1A1A" opacity="0.55"/><rect x="95" y="123" width="10" height="10" rx="3" fill="#A86B45"/><ellipse cx="85" cy="114" rx="3" ry="4.5" fill="#A86B45"/><ellipse cx="115" cy="114" rx="3" ry="4.5" fill="#A86B45"/><ellipse cx="100" cy="112" rx="14" ry="16" fill="#A86B45"/><path d="M85,111 Q84,93 100,94 Q115,93 115,110 Q109,102 98,103 Q90,104 85,111 Z" fill="#1E1915"/><path d="M94,95 Q93,100 91,104" stroke="#835336" stroke-width="1.4" fill="none" stroke-linecap="round"/><path d="M92,108 q3,-2 6,0 M102,108 q3,-2 6,0" stroke="#1E1915" stroke-width="1.4" fill="none" stroke-linecap="round"/><circle cx="95" cy="113" r="1.5" fill="#1A1A1A"/><circle cx="105" cy="113" r="1.5" fill="#1A1A1A"/><path d="M100,114 q-2,4 1,5" stroke="#835336" stroke-width="1.2" fill="none" stroke-linecap="round"/><path d="M96,122 q4,3 8,0" stroke="#1A1A1A" stroke-width="1.3" fill="none" stroke-linecap="round"/><path d="M118,140 L141.8844128792408,124.20332878692615" stroke="#C5D6E8" stroke-width="11" stroke-linecap="round"/><path d="M141.8844128792408,124.20332878692615 L175.01384642152547,113.59952601776152" stroke="#C5D6E8" stroke-width="9" stroke-linecap="round"/><path d="M166.7314880359543,116.25047671005268 L175.01384642152547,113.59952601776152" stroke="#A86B45" stroke-width="7" stroke-linecap="round"/><circle cx="175.01384642152547" cy="113.59952601776152" r="5" fill="#A86B45"/></svg>