<svg xmlns="http://www.w3.org/2000/svg" viewBox="0 0 420 265" width="420" height="265"><ellipse cx="210" cy="252" rx="195" ry="9" fill="#C5D6E8" opacity="0.65"/><polygon points="220.0,84.0 219.5,89.2 212.0,92.0 210.3,95.7 213.0,103.3 209.3,107.0 201.7,104.3 198.0,106.0 195.2,113.5 190.0,114.0 185.9,107.0 182.0,106.0 175.0,110.0 170.7,107.0 172.1,99.0 169.7,95.7 161.8,94.3 160.5,89.2 166.6,84.0 167.0,79.9 161.8,73.7 164.0,69.0 172.1,69.0 175.0,66.1 175.0,58.0 179.7,55.8 185.9,61.0 190.0,60.6 195.2,54.5 200.3,55.8 201.7,63.7 205.0,66.1 213.0,64.7 216.0,69.0 212.0,76.0 213.0,79.9" fill="#BAC4CE"/><circle cx="190" cy="84" r="9" fill="#FFFFFF"/><polygon points="313.4,90.0 311.9,95.0 304.0,96.2 301.5,99.5 302.7,107.5 298.3,110.4 291.4,106.2 287.5,107.1 283.2,114.0 278.0,113.4 275.4,105.8 271.8,104.0 264.1,106.5 260.5,102.7 263.4,95.2 261.8,91.4 254.3,88.5 254.0,83.2 261.1,79.4 262.2,75.4 258.4,68.3 261.5,64.1 269.4,65.7 272.8,63.4 274.5,55.6 279.5,54.3 284.6,60.6 288.6,61.1 295.0,56.1 299.7,58.4 299.5,66.5 302.3,69.4 310.4,69.7 312.4,74.5 307.1,80.5 307.4,84.6" fill="#BAC4CE"/><circle cx="284" cy="84" r="9" fill="#FFFFFF"/><polygon points="344.0,186.0 343.5,192.3 333.7,195.6 331.8,200.2 336.4,209.5 332.3,214.3 322.3,211.2 318.2,213.8 316.4,224.0 310.3,225.5 304.0,217.2 299.1,216.8 291.6,224.0 285.8,221.6 285.7,211.2 281.9,208.1 271.6,209.5 268.4,204.2 274.3,195.6 273.2,190.9 264.0,186.0 264.5,179.7 274.3,176.4 276.2,171.8 271.6,162.5 275.7,157.7 285.7,160.8 289.8,158.2 291.6,148.0 297.7,146.5 304.0,154.8 308.9,155.2 316.4,148.0 322.2,150.4 322.3,160.8 326.1,163.9 336.4,162.5 339.6,167.8 333.7,176.4 334.8,181.1" fill="#1B3A6B"/><circle cx="304" cy="186" r="12" fill="#FFFFFF"/><polygon points="401.6,198.2 398.7,203.7 389.7,203.6 385.9,206.7 384.3,215.5 378.3,217.4 372.1,211.0 367.2,210.5 359.8,215.6 354.3,212.7 354.4,203.7 351.3,199.9 342.5,198.3 340.6,192.3 347.0,186.1 347.5,181.2 342.4,173.8 345.3,168.3 354.3,168.4 358.1,165.3 359.7,156.5 365.7,154.6 371.9,161.0 376.8,161.5 384.2,156.4 389.7,159.3 389.6,168.3 392.7,172.1 401.5,173.7 403.4,179.7 397.0,185.9 396.5,190.8" fill="#E0701A"/><circle cx="372" cy="186" r="9.6" fill="#FFFFFF"/><path d="M262,150 a44,44 0 0 1 60,-12" stroke="#2E9E5C" stroke-width="5" fill="none" stroke-linecap="round"/><path d="M318,126 l12,14 l-18,4 Z" fill="#2E9E5C"/><path d="M81,178 L83,244 L93,244 L95,184 L97,184 L99,244 L109,244 L111,178 Z" fill="#1A1A1A"/><ellipse cx="87" cy="247" rx="9" ry="4" fill="#1A1A1A"/><ellipse cx="105" cy="247" rx="9" ry="4" fill="#1A1A1A"/><path d="M78,140 L73,174" stroke="#3E6FA8" stroke-width="11" stroke-linecap="round"/><path d="M73,174 L76,202" stroke="#3E6FA8" stroke-width="9" stroke-linecap="round"/><path d="M75.25,195 L76,202" stroke="#8D5A3B" stroke-width="7" stroke-linecap="round"/><circle cx="76" cy="202" r="5" fill="#8D5A3B"/><path d="M75,138 Q74,130 84,128 L108,128 Q118,130 117,138 L113,180 L79,180 Z" fill="#3E6FA8"/><path d="M89,128 L96,139 L103,128" fill="#FFFFFF" stroke="#FFFFFF" stroke-width="1"/><rect x="79" y="176" width="34" height="5" fill="#1A1A1A" opacity="0.55"/><path d="M79,110 Q77,90 96,91 Q115,90 113,110 L114,138 Q96,143 78,138 Z" fill="#1E1915"/><rect x="91" y="123" width="10" height="10" rx="3" fill="#8D5A3B"/><ellipse cx="81" cy="114" rx="3" ry="4.5" fill="#8D5A3B"/><ellipse cx="111" cy="114" rx="3" ry="4.5" fill="#8D5A3B"/><ellipse cx="96" cy="112" rx="14" ry="16" fill="#8D5A3B"/><path d="M81,114 Q80,93 96,94 Q112,93 111,114 Q108,104 99,102 Q90,105 81,114 Z" fill="#1E1915"/><path d="M88,108 q3,-2 6,0 M98,108 q3,-2 6,0" stroke="#1E1915" stroke-width="1.4" fill="none" stroke-linecap="round"/><circle cx="91" cy="113" r="1.5" fill="#1A1A1A"/><circle cx="101" cy="113" r="1.5" fill="#1A1A1A"/><path d="M96,114 q-2,4 1,5" stroke="#6e462e" stroke-width="1.2" fill="none" stroke-linecap="round"/><path d="M92,122 q4,3 8,0" stroke="#1A1A1A" stroke-width="1.3" fill="none" stroke-linecap="round"/><path d="M114,140 L140,128" stroke="#3E6FA8" stroke-width="11" stroke-linecap="round"/><path d="M140,128 L176,128" stroke="#3E6FA8" stroke-width="9" stroke-linecap="round"/><path d="M167,128 L176,128" stroke="#8D5A3B" stroke-width="7" stroke-linecap="round"/><circle cx="176" cy="128" r="5" fill="#8D5A3B"/></svg>