<svg xmlns="http://www.w3.org/2000/svg" viewBox="0 0 420 265" width="420" height="265"><ellipse cx="210" cy="252" rx="195" ry="9" fill="#C5D6E8" opacity="0.65"/><rect x="186" y="34" width="150" height="204" rx="5" fill="#FFFFFF" stroke="#BAC4CE" stroke-width="2"/><rect x="196" y="56" width="130" height="5" rx="2.5" fill="#BAC4CE"/><rect x="196" y="78" width="118" height="5" rx="2.5" fill="#BAC4CE"/><rect x="196" y="100" width="130" height="5" rx="2.5" fill="#BAC4CE"/><rect x="196" y="122" width="118" height="5" rx="2.5" fill="#BAC4CE"/><rect x="196" y="144" width="130" height="5" rx="2.5" fill="#BAC4CE"/><rect x="196" y="166" width="118" height="5" rx="2.5" fill="#BAC4CE"/><rect x="196" y="188" width="130" height="5" rx="2.5" fill="#BAC4CE"/><rect x="196" y="210" width="118" height="5" rx="2.5" fill="#BAC4CE"/><circle cx="376" cy="62" r="19" fill="#1B3A6B"/><circle cx="376" cy="62" r="3" fill="#FFFFFF"/><path d="M340,62 L354,62" stroke="#1B3A6B" stroke-width="4" stroke-linecap="round"/><circle cx="376" cy="110" r="19" fill="#3E6FA8"/><circle cx="371.5" cy="110" r="3" fill="#FFFFFF"/><circle cx="380.5" cy="110" r="3" fill="#FFFFFF"/><path d="M340,110 L354,110" stroke="#3E6FA8" stroke-width="4" stroke-linecap="round"/><circle cx="376" cy="158" r="19" fill="#E0701A"/><circle cx="367" cy="158" r="3" fill="#FFFFFF"/><circle cx="376" cy="158" r="3" fill="#FFFFFF"/><circle cx="385" cy="158" r="3" fill="#FFFFFF"/><path d="M340,158 L354,158" stroke="#E0701A" stroke-width="4" stroke-linecap="round"/><circle cx="376" cy="206" r="19" fill="#2E9E5C"/><circle cx="362.5" cy="206" r="3" fill="#FFFFFF"/><circle cx="371.5" cy="206" r="3" fill="#FFFFFF"/><circle cx="380.5" cy="206" r="3" fill="#FFFFFF"/><circle cx="389.5" cy="206" r="3" fill="#FFFFFF"/><path d="M340,206 L354,206" stroke="#2E9E5C" stroke-width="4" stroke-linecap="round"/><path d="M81,178 L83,244 L93,244 L95,184 L97,184 L99,244 L109,244 L111,178 Z" fill="#1A1A1A"/><ellipse cx="87" cy="247" rx="9" ry="4" fill="#1A1A1A"/><ellipse cx="105" cy="247" rx="9" ry="4" fill="#1A1A1A"/><path d="M78,140 L73,174" stroke="#2E9E5C" stroke-width="11" stroke-linecap="round"/><path d="M73,174 L76,202" stroke="#2E9E5C" stroke-width="9" stroke-linecap="round"/><path d="M75.25,195 L76,202" stroke="#8D5A3B" stroke-width="7" stroke-linecap="round"/><circle cx="76" cy="202" r="5" fill="#8D5A3B"/><path d="M75,138 Q74,130 84,128 L108,128 Q118,130 117,138 L113,180 L79,180 Z" fill="#2E9E5C"/><path d="M89,128 L96,139 L103,128" fill="#FFFFFF" stroke="#FFFFFF" stroke-width="1"/><rect x="79" y="176" width="34" height="5" fill="#1A1A1A" opacity="0.55"/><rect x="91" y="123" width="10" height="10" rx="3" fill="#8D5A3B"/><ellipse cx="81" cy="114" rx="3" ry="4.5" fill="#8D5A3B"/><ellipse cx="111" cy="114" rx="3" ry="4.5" fill="#8D5A3B"/><ellipse cx="96" cy="112" rx="14" ry="16" fill="#8D5A3B"/><path d="M81,111 Q80,93 96,94 Q111,93 111,110 Q105,102 94,103 Q86,104 81,111 Z" fill="#1E1915"/><path d="M90,95 Q89,100 87,104" stroke="#6e462e" stroke-width="1.4" fill="none" stroke-linecap="round"/><path d="M88,108 q3,-2 6,0 M98,108 q3,-2 6,0" stroke="#1E1915" stroke-width="1.4" fill="none" stroke-linecap="round"/><circle cx="91" cy="113" r="1.5" fill="#1A1A1A"/><circle cx="101" cy="113" r="1.5" fill="#1A1A1A"/><path d="M96,114 q-2,4 1,5" stroke="#6e462e" stroke-width="1.2" fill="none" stroke-linecap="round"/><path d="M92,122 q4,3 8,0" stroke="#1A1A1A" stroke-width="1.3" fill="none" stroke-linecap="round"/><path d="M114,140 L140,128" stroke="#2E9E5C" stroke-width="11" stroke-linecap="round"/><path d="M140,128 L176,128" stroke="#2E9E5C" stroke-width="9" stroke-linecap="round"/><path d="M167,128 L176,128" stroke="#8D5A3B" stroke-width="7" stroke-linecap="round"/><circle cx="176" cy="128" r="5" fill="#8D5A3B"/></svg>