<svg xmlns="http://www.w3.org/2000/svg" viewBox="0 0 420 265" width="420" height="265"><ellipse cx="210" cy="252" rx="195" ry="10" fill="#C5D6E8" opacity="0.6"/><rect x="186" y="44" width="150" height="150" rx="8" fill="#FFFFFF" stroke="#BAC4CE" stroke-width="2"/><rect x="200" y="58" width="36" height="36" rx="5" fill="#EDF1F5" stroke="#BAC4CE"/><path d="M210,77 l6,6 l11,-13" stroke="#2E9E5C" stroke-width="3.5" fill="none" stroke-linecap="round" stroke-linejoin="round"/><rect x="242" y="58" width="36" height="36" rx="5" fill="#EDF1F5" stroke="#BAC4CE"/><path d="M252,77 l6,6 l11,-13" stroke="#2E9E5C" stroke-width="3.5" fill="none" stroke-linecap="round" stroke-linejoin="round"/><rect x="284" y="58" width="36" height="36" rx="5" fill="#F0EAE0" stroke="#BAC4CE"/><circle cx="302" cy="76" r="5" fill="none" stroke="#595959" stroke-width="2.5" stroke-dasharray="3 3"/><rect x="200" y="100" width="36" height="36" rx="5" fill="#EDF1F5" stroke="#BAC4CE"/><path d="M210,119 l6,6 l11,-13" stroke="#2E9E5C" stroke-width="3.5" fill="none" stroke-linecap="round" stroke-linejoin="round"/><rect x="242" y="100" width="36" height="36" rx="5" fill="#EDF1F5" stroke="#BAC4CE"/><path d="M252,119 l6,6 l11,-13" stroke="#2E9E5C" stroke-width="3.5" fill="none" stroke-linecap="round" stroke-linejoin="round"/><rect x="284" y="100" width="36" height="36" rx="5" fill="#EDF1F5" stroke="#BAC4CE"/><path d="M294,119 l6,6 l11,-13" stroke="#2E9E5C" stroke-width="3.5" fill="none" stroke-linecap="round" stroke-linejoin="round"/><rect x="200" y="142" width="36" height="36" rx="5" fill="#F0EAE0" stroke="#BAC4CE"/><circle cx="218" cy="160" r="5" fill="none" stroke="#595959" stroke-width="2.5" stroke-dasharray="3 3"/><rect x="242" y="142" width="36" height="36" rx="5" fill="#EDF1F5" stroke="#BAC4CE"/><path d="M252,161 l6,6 l11,-13" stroke="#2E9E5C" stroke-width="3.5" fill="none" stroke-linecap="round" stroke-linejoin="round"/><rect x="284" y="142" width="36" height="36" rx="5" fill="#EDF1F5" stroke="#BAC4CE"/><path d="M294,161 l6,6 l11,-13" stroke="#2E9E5C" stroke-width="3.5" fill="none" stroke-linecap="round" stroke-linejoin="round"/><path d="M206,194 L198,252 M316,194 L324,252" stroke="#595959" stroke-width="4"/><rect x="372" y="60" width="12" height="9" rx="2" fill="#1B3A6B"/><circle cx="378" cy="98" r="28" fill="#FFFFFF" stroke="#1B3A6B" stroke-width="5"/><path d="M378,98 L378,78 M378,98 L392,106" stroke="#E0701A" stroke-width="4" stroke-linecap="round"/><circle cx="378" cy="98" r="3.5" fill="#1B3A6B"/><path d="M83,178 L85,244 L95,244 L97,184 L99,184 L101,244 L111,244 L113,178 Z" fill="#1A1A1A"/><ellipse cx="89" cy="247" rx="9" ry="4" fill="#1A1A1A"/><ellipse cx="107" cy="247" rx="9" ry="4" fill="#1A1A1A"/><path d="M80,140 L77,172" stroke="#B11E2A" stroke-width="11" stroke-linecap="round"/><path d="M77,172 L94,180" stroke="#B11E2A" stroke-width="9" stroke-linecap="round"/><path d="M89.75,178 L94,180" stroke="#8D5A3B" stroke-width="7" stroke-linecap="round"/><circle cx="94" cy="180" r="5" fill="#8D5A3B"/><path d="M77,138 Q76,130 86,128 L110,128 Q120,130 119,138 L115,180 L81,180 Z" fill="#B11E2A"/><path d="M91,128 L98,139 L105,128" fill="#FFFFFF" stroke="#FFFFFF" stroke-width="1"/><rect x="81" y="176" width="34" height="5" fill="#1A1A1A" opacity="0.55"/><circle cx="100" cy="90" r="8" fill="#1E1915"/><rect x="93" y="123" width="10" height="10" rx="3" fill="#8D5A3B"/><ellipse cx="83" cy="114" rx="3" ry="4.5" fill="#8D5A3B"/><ellipse cx="113" cy="114" rx="3" ry="4.5" fill="#8D5A3B"/><ellipse cx="98" cy="112" rx="14" ry="16" fill="#8D5A3B"/><path d="M83,114 Q82,93 98,94 Q114,93 113,114 Q110,104 101,102 Q92,105 83,114 Z" fill="#1E1915"/><path d="M90,108 q3,-2 6,0 M100,108 q3,-2 6,0" stroke="#1E1915" stroke-width="1.4" fill="none" stroke-linecap="round"/><circle cx="93" cy="113" r="1.5" fill="#1A1A1A"/><circle cx="103" cy="113" r="1.5" fill="#1A1A1A"/><path d="M98,114 q-2,4 1,5" stroke="#6e462e" stroke-width="1.2" fill="none" stroke-linecap="round"/><path d="M94,122 q4,3 8,0" stroke="#1A1A1A" stroke-width="1.3" fill="none" stroke-linecap="round"/><g stroke="#1A1A1A" stroke-width="1.2" fill="none"><circle cx="93" cy="113" r="4.2"/><circle cx="103" cy="113" r="4.2"/><path d="M97,113 h2"/></g><path d="M116,140 L119,172" stroke="#B11E2A" stroke-width="11" stroke-linecap="round"/><path d="M119,172 L106,178" stroke="#B11E2A" stroke-width="9" stroke-linecap="round"/><path d="M109.25,176.5 L106,178" stroke="#8D5A3B" stroke-width="7" stroke-linecap="round"/><circle cx="106" cy="178" r="5" fill="#8D5A3B"/><g transform="rotate(-8 106 142)"><rect x="92" y="135" width="44" height="54" rx="5" fill="#1A1A1A" opacity="0.12"/><rect x="88" y="130" width="44" height="54" rx="5" fill="#FFFFFF" stroke="#BAC4CE" stroke-width="1.5"/><rect x="98" y="140" width="24.200000000000003" height="6" rx="3" fill="#1B3A6B"/><rect x="98" y="152" width="10" height="10" rx="2" fill="#EDF1F5" stroke="#BAC4CE"/><path d="M100,157 l3,3 l5,-6" stroke="#2E9E5C" stroke-width="2" fill="none" stroke-linecap="round"/><rect x="114" y="155" width="6" height="4" rx="2" fill="#BAC4CE"/><rect x="98" y="168" width="10" height="10" rx="2" fill="#EDF1F5" stroke="#BAC4CE"/><path d="M100,173 l3,3 l5,-6" stroke="#2E9E5C" stroke-width="2" fill="none" stroke-linecap="round"/><rect x="114" y="171" width="-8" height="4" rx="2" fill="#BAC4CE"/></g></svg>